<svg width="28" height="23" viewBox="0 0 28 23" fill="none" xmlns="http://www.w3.org/2000/svg">
<path d="M27.1445 11.4083L23.486 5.73341C23.2504 5.35051 22.9121 5.03212 22.5048 4.8099C22.0974 4.58768 21.6352 4.46935 21.164 4.46668H17.8835V1.93323C17.8835 1.59727 17.7413 1.27508 17.4881 1.03752C17.2349 0.799962 16.8915 0.666504 16.5335 0.666504H3.0335C2.31741 0.666504 1.63066 0.93342 1.12431 1.40853C0.617959 1.88365 0.333496 2.52804 0.333496 3.19996V15.8672C0.333982 16.3115 0.458969 16.7478 0.695919 17.1325C0.932869 17.5171 1.27345 17.8365 1.6835 18.0587C1.63516 19.2345 2.08662 20.3802 2.93855 21.2437C3.79048 22.1072 4.9731 22.6178 6.22625 22.6632C7.47939 22.7086 8.70042 22.285 9.62071 21.4856C10.541 20.6862 11.0852 19.5765 11.1335 18.4007H15.3185C15.4678 19.4605 16.0225 20.4334 16.8793 21.1381C17.7361 21.8428 18.8366 22.2313 19.976 22.2313C21.1154 22.2313 22.2159 21.8428 23.0727 21.1381C23.9295 20.4334 24.4842 19.4605 24.6335 18.4007C25.3496 18.4007 26.0363 18.1338 26.5427 17.6586C27.049 17.1835 27.3335 16.5391 27.3335 15.8672V12.067C27.3314 11.8359 27.2663 11.6092 27.1445 11.4083ZM6.4085 19.6674C6.00799 19.6674 5.61648 19.556 5.28347 19.3472C4.95046 19.1384 4.69091 18.8416 4.53764 18.4944C4.38437 18.1472 4.34427 17.7652 4.42241 17.3966C4.50054 17.028 4.6934 16.6895 4.9766 16.4237C5.25981 16.158 5.62063 15.977 6.01344 15.9037C6.40625 15.8304 6.81341 15.868 7.18343 16.0119C7.55345 16.1557 7.86971 16.3992 8.09222 16.7117C8.31473 17.0241 8.4335 17.3915 8.4335 17.7673C8.4335 18.2712 8.22015 18.7545 7.84039 19.1109C7.46063 19.4672 6.94556 19.6674 6.4085 19.6674ZM13.8335 9.53359H11.1335V12.067H8.4335V9.53359H5.7335V7.00013H8.4335V4.46668H11.1335V7.00013H13.8335V9.53359ZM19.9085 19.6674C19.508 19.6674 19.1165 19.556 18.7835 19.3472C18.4505 19.1384 18.1909 18.8416 18.0376 18.4944C17.8844 18.1472 17.8443 17.7652 17.9224 17.3966C18.0005 17.028 18.1934 16.6895 18.4766 16.4237C18.7598 16.158 19.1206 15.977 19.5134 15.9037C19.9062 15.8304 20.3134 15.868 20.6834 16.0119C21.0534 16.1557 21.3697 16.3992 21.5922 16.7117C21.8147 17.0241 21.9335 17.3915 21.9335 17.7673C21.9335 18.2712 21.7201 18.7545 21.3404 19.1109C20.9606 19.4672 20.4456 19.6674 19.9085 19.6674ZM17.8835 10.8003V7.00013H21.164L23.594 10.8003H17.8835Z" fill="#005792"/>
</svg>
