<svg width="28" height="29" viewBox="0 0 28 29" fill="none" xmlns="http://www.w3.org/2000/svg">
<path d="M2.80093 28.0142H16.2687C17.0766 28.0146 17.875 27.8307 18.609 27.475C19.3429 27.1194 19.9951 26.6004 20.5204 25.9539L27.6631 17.1761C27.8127 16.9926 27.9171 16.7732 27.9672 16.5371C28.0173 16.3011 28.0116 16.0557 27.9504 15.8226C27.8893 15.5895 27.7747 15.3758 27.6167 15.2003C27.4587 15.0249 27.2621 14.893 27.0443 14.8164L24.2892 13.849C23.6233 13.621 22.9143 13.5694 22.225 13.6988C21.5356 13.8282 20.8872 14.1345 20.337 14.5908L15.8781 18.347L15.0143 16.5257C14.5516 15.5439 13.8371 14.7182 12.9518 14.1422C12.0665 13.5662 11.0458 13.2628 10.0052 13.2665H2.80093C1.25676 13.2665 0.000976562 14.5893 0.000976562 16.216V25.0646C0.000976562 26.6913 1.25676 28.0142 2.80093 28.0142ZM2.80093 16.216H10.0052C11.0734 16.216 12.0324 16.8398 12.5098 17.8456L13.1356 19.1655H7.00086V22.1151H15.4203C15.6357 22.1121 15.8475 22.0566 16.0391 21.9529L16.0433 21.9514L16.0489 21.9484H16.0531L16.0559 21.947H16.0615L16.0629 21.9455C16.0783 21.9499 16.0671 21.944 16.0671 21.944C16.0839 21.944 16.0699 21.9425 16.0699 21.9425H16.0713L16.0741 21.9411L16.0783 21.9396L16.0811 21.9381L16.0839 21.9366L16.0881 21.9352L16.0909 21.9337L16.0937 21.9322L16.0979 21.9293L16.1007 21.9278L16.1035 21.9263L16.1077 21.9248L16.1105 21.9234H16.1119L16.1147 21.9219H16.1161L16.1189 21.9204L16.1217 21.9189C16.1371 21.9175 16.1259 21.9175 16.1259 21.9175L16.1287 21.916C16.1827 21.8817 16.2341 21.8432 16.2827 21.801L22.087 16.9091C22.4524 16.6024 22.9592 16.5065 23.403 16.6628L24.1828 16.9372L18.3967 24.05C18.1305 24.3683 17.8032 24.6234 17.4363 24.7984C17.0694 24.9733 16.6714 25.0641 16.2687 25.0646H2.80093V16.216ZM16.4661 0.474289C15.8207 1.22052 12.6008 5.0918 12.6008 8.10475C12.6008 10.9511 14.7987 13.2665 17.5007 13.2665C20.2027 13.2665 22.4006 10.9511 22.4006 8.10475C22.4006 5.0918 19.1807 1.22052 18.5353 0.474289C18.0047 -0.139216 16.9967 -0.139216 16.4661 0.474289ZM19.6007 8.10475C19.6007 9.32439 18.6585 10.3169 17.5007 10.3169C16.3429 10.3169 15.4007 9.32439 15.4007 8.10475C15.4007 7.06062 16.4339 5.25255 17.5007 3.77778C18.5675 5.25255 19.6007 7.06062 19.6007 8.10475Z" fill="#005792"/>
</svg>
