<svg width="32" height="32" viewBox="0 0 32 32" fill="none" xmlns="http://www.w3.org/2000/svg">
<path d="M25 16H17C16.4697 16.0005 15.9613 16.2114 15.5864 16.5864C15.2114 16.9613 15.0005 17.4697 15 18V24H4V14H2V30H4V26H28V30H30V21C29.9984 19.6744 29.4711 18.4036 28.5338 17.4662C27.5964 16.5289 26.3256 16.0016 25 16ZM28 24H17V18H25C25.7954 18.0008 26.558 18.3171 27.1204 18.8796C27.6829 19.442 27.9992 20.2046 28 21V24Z" fill="#005792"/>
<path d="M9.5 17C9.79667 17 10.0867 17.088 10.3334 17.2528C10.58 17.4176 10.7723 17.6519 10.8858 17.926C10.9994 18.2001 11.0291 18.5017 10.9712 18.7926C10.9133 19.0836 10.7704 19.3509 10.5607 19.5607C10.3509 19.7704 10.0836 19.9133 9.79264 19.9712C9.50167 20.0291 9.20007 19.9993 8.92598 19.8858C8.65189 19.7723 8.41762 19.58 8.2528 19.3334C8.08797 19.0867 8 18.7967 8 18.5C8.00053 18.1023 8.15874 17.7211 8.43993 17.4399C8.72112 17.1587 9.10234 17.0005 9.5 17ZM9.5 15C8.80777 15 8.13108 15.2053 7.55551 15.5899C6.97993 15.9744 6.53133 16.5211 6.26642 17.1606C6.00152 17.8001 5.9322 18.5039 6.06725 19.1828C6.2023 19.8617 6.53564 20.4854 7.02513 20.9749C7.51461 21.4644 8.13825 21.7977 8.81718 21.9327C9.49612 22.0678 10.1999 21.9985 10.8394 21.7336C11.4789 21.4687 12.0256 21.0201 12.4101 20.4445C12.7947 19.8689 13 19.1922 13 18.5C13 17.5717 12.6313 16.6815 11.9749 16.0251C11.3185 15.3687 10.4283 15 9.5 15ZM21 6H17V2H15V6H11V8H15V12H17V8H21V6Z" fill="#005792"/>
</svg>
