<svg width="36" height="36" viewBox="0 0 36 36" fill="none" xmlns="http://www.w3.org/2000/svg">
<path fill-rule="evenodd" clip-rule="evenodd" d="M36.001 8C36.001 10.1217 35.1581 12.1566 33.6578 13.6569C32.1575 15.1571 30.1227 16 28.001 16C25.8792 16 23.8444 15.1571 22.3441 13.6569C20.8438 12.1566 20.001 10.1217 20.001 8C20.001 5.87827 20.8438 3.84344 22.3441 2.34315C23.8444 0.842854 25.8792 0 28.001 0C30.1227 0 32.1575 0.842854 33.6578 2.34315C35.1581 3.84344 36.001 5.87827 36.001 8ZM32.283 8.985C32.2234 9.24324 32.0638 9.46728 31.8392 9.60791C31.6146 9.74854 31.3433 9.79425 31.085 9.735L24.469 8.215C24.2104 8.15559 23.986 7.99589 23.8452 7.77104C23.7043 7.54618 23.6586 7.27459 23.718 7.016C23.7774 6.75741 23.9371 6.53302 24.1619 6.39218C24.3868 6.25134 24.6584 6.20559 24.917 6.265L31.533 7.786C31.661 7.81548 31.7819 7.86988 31.8888 7.94609C31.9958 8.0223 32.0867 8.11883 32.1563 8.23016C32.226 8.3415 32.273 8.46547 32.2947 8.59498C32.3165 8.7245 32.3125 8.85703 32.283 8.985Z" fill="#005792"/>
<path d="M10.779 3.24513C10.132 1.71313 7.96603 1.55913 7.09703 2.98213L0.293029 14.1151C-0.491971 15.3991 0.385029 17.0391 1.91603 17.1481L13.782 17.9941C15.312 18.1041 16.426 16.6061 15.842 15.2241L10.779 3.24513Z" fill="#005792"/>
<path fill-rule="evenodd" clip-rule="evenodd" d="M29.3859 30.3599C30.8283 29.6874 31.9445 28.4696 32.4889 26.9741C33.0333 25.4787 32.9614 23.8283 32.2889 22.3859C31.9559 21.6717 31.4856 21.0301 30.9046 20.4977C30.3237 19.9653 29.6436 19.5525 28.9031 19.2829C27.4077 18.7385 25.7573 18.8104 24.3149 19.4829L13.4389 24.5549C12.7248 24.8879 12.0832 25.3582 11.5509 25.9391C11.0185 26.52 10.6058 27.2001 10.3363 27.9405C10.0668 28.6809 9.94573 29.4672 9.98007 30.2544C10.0144 31.0416 10.2034 31.8143 10.5364 32.5284C10.8694 33.2425 11.3397 33.8841 11.9207 34.4164C12.5016 34.9488 13.1816 35.3615 13.922 35.631C14.6624 35.9005 15.4487 36.0216 16.2359 35.9873C17.0231 35.9529 17.7958 35.7639 18.5099 35.4309L29.3859 30.3589V30.3599ZM23.9439 30.6899L28.5409 28.5469C29.4916 28.092 30.2244 27.2802 30.5799 26.288C30.9354 25.2958 30.885 24.2034 30.4395 23.2481C29.9941 22.2929 29.1896 21.5521 28.201 21.1868C27.2124 20.8214 26.1195 20.861 25.1599 21.2969L20.5629 23.4399L23.9429 30.6899H23.9439Z" fill="#005792"/>
</svg>
