<svg width="31" height="32" viewBox="0 0 31 32" fill="none" xmlns="http://www.w3.org/2000/svg">
<path fill-rule="evenodd" clip-rule="evenodd" d="M11.2293 1.78792H9.52092V3.37126H13.7918V4.95459H9.52092V6.60363C11.945 6.98046 13.7918 8.9343 13.7918 11.2879V12.8713H3.54175V11.2879C3.54191 10.1654 3.97087 9.0791 4.75262 8.22168C5.53436 7.36425 6.6184 6.79104 7.81258 6.60363V4.95459H5.95904C5.75733 5.48275 5.36072 5.92784 4.83926 6.21125C4.3178 6.49466 3.70505 6.59815 3.10925 6.50343C2.51345 6.40871 1.97294 6.12188 1.58318 5.69361C1.19343 5.26535 0.979528 4.72319 0.979251 4.16292C0.978349 3.60205 1.19165 3.05897 1.58137 2.62988C1.97109 2.2008 2.51209 1.91339 3.10854 1.81857C3.70499 1.72375 4.3184 1.82763 4.84012 2.11182C5.36185 2.39601 5.75822 2.84216 5.95904 3.37126H7.81258V1.78792H6.10425V0.20459H11.2293V1.78792ZM3.54175 14.4546V31.0796C3.54175 31.2896 3.63174 31.4909 3.79193 31.6394C3.95212 31.7879 4.16938 31.8713 4.39592 31.8713H12.9376C13.1641 31.8713 13.3814 31.7879 13.5416 31.6394C13.7018 31.4909 13.7918 31.2896 13.7918 31.0796V14.4546H3.54175ZM3.54175 3.37126C3.31521 3.37126 3.09795 3.45466 2.93776 3.60313C2.77758 3.7516 2.68758 3.95296 2.68758 4.16292C2.68758 4.37289 2.77758 4.57425 2.93776 4.72272C3.09795 4.87118 3.31521 4.95459 3.54175 4.95459C3.76829 4.95459 3.98555 4.87118 4.14574 4.72272C4.30593 4.57425 4.39592 4.37289 4.39592 4.16292C4.39592 3.95296 4.30593 3.7516 4.14574 3.60313C3.98555 3.45466 3.76829 3.37126 3.54175 3.37126ZM17.2084 13.6629C17.2084 12.8231 17.5684 12.0176 18.2091 11.4238C18.8499 10.8299 19.7189 10.4963 20.6251 10.4963C21.5312 10.4963 22.4003 10.8299 23.041 11.4238C23.6818 12.0176 24.0418 12.8231 24.0418 13.6629V18.4129C24.0418 19.2528 23.6818 20.0582 23.041 20.6521C22.4003 21.246 21.5312 21.5796 20.6251 21.5796C19.7189 21.5796 18.8499 21.246 18.2091 20.6521C17.5684 20.0582 17.2084 19.2528 17.2084 18.4129V13.6629ZM20.6251 12.0796C20.172 12.0796 19.7375 12.2464 19.4171 12.5433C19.0967 12.8403 18.9168 13.243 18.9168 13.6629V18.4129C18.9168 18.8328 19.0967 19.2356 19.4171 19.5325C19.7375 19.8294 20.172 19.9963 20.6251 19.9963C21.0782 19.9963 21.5127 19.8294 21.8331 19.5325C22.1534 19.2356 22.3334 18.8328 22.3334 18.4129V13.6629C22.3334 13.243 22.1534 12.8403 21.8331 12.5433C21.5127 12.2464 21.0782 12.0796 20.6251 12.0796ZM24.8959 17.6213H27.4584C27.685 17.6213 27.9022 17.7047 28.0624 17.8531C28.2226 18.0016 28.3126 18.203 28.3126 18.4129C28.3126 18.6229 28.2226 18.8242 28.0624 18.9727C27.9022 19.1212 27.685 19.2046 27.4584 19.2046C26.7788 19.2046 26.127 19.4548 25.6465 19.9002C25.1659 20.3456 24.8959 20.9497 24.8959 21.5796V23.1629C24.8959 23.3729 24.9859 23.5743 25.1461 23.7227C25.3063 23.8712 25.5235 23.9546 25.7501 23.9546H30.0209V22.3713H26.6043V21.5796C26.6043 21.3696 26.6942 21.1683 26.8544 21.0198C27.0146 20.8713 27.2319 20.7879 27.4584 20.7879C28.138 20.7879 28.7898 20.5377 29.2704 20.0923C29.7509 19.6469 30.0209 19.0428 30.0209 18.4129C30.0209 17.783 29.7509 17.1789 29.2704 16.7335C28.7898 16.2881 28.138 16.0379 27.4584 16.0379H24.8959V17.6213Z" fill="#005792"/>
</svg>
