<svg width="22" height="18" viewBox="0 0 22 18" fill="none" xmlns="http://www.w3.org/2000/svg">
<path d="M5.87313 14.129C4.02813 12.819 2.56813 11.115 1.74313 10.039C1.51244 9.74198 1.38721 9.37659 1.38721 9.0005C1.38721 8.62441 1.51244 8.25902 1.74313 7.962C3.23613 6.013 6.81813 2 11.0001 2C12.8761 2 14.6301 2.807 16.1301 3.874" stroke="#005792" stroke-width="2" stroke-linecap="round" stroke-linejoin="round"/>
<path d="M9.00024 15.704C9.64945 15.8972 10.3229 15.9969 11.0002 16C15.1822 16 18.7642 11.987 20.2572 10.038C20.4879 9.74071 20.613 9.37509 20.6128 8.99883C20.6126 8.62256 20.4872 8.25707 20.2562 7.96C19.7315 7.27549 19.1686 6.62112 18.5702 6M13.1302 6.887C12.8525 6.60467 12.5217 6.38011 12.1568 6.22629C11.7918 6.07246 11.4001 5.99241 11.004 5.99075C10.608 5.98909 10.2156 6.06586 9.84939 6.21662C9.48319 6.36738 9.15046 6.58916 8.8704 6.86915C8.59034 7.14915 8.36849 7.48183 8.21764 7.84799C8.06679 8.21416 7.98993 8.60657 7.9915 9.00259C7.99306 9.3986 8.07302 9.79039 8.22676 10.1554C8.3805 10.5203 8.60498 10.8512 8.88724 11.129L13.1302 6.887ZM3.00024 17L19.0002 1L3.00024 17Z" stroke="#005792" stroke-width="2" stroke-linecap="round" stroke-linejoin="round"/>
</svg>
